<svg width="40" height="40" viewBox="0 0 40 40" fill="none" xmlns="http://www.w3.org/2000/svg">
<rect x="0.5" y="0.5" width="39" height="39" rx="19.5" stroke="#2D2D2D" stroke-opacity="0.12"/>
<path fill-rule="evenodd" clip-rule="evenodd" d="M20.0011 13.4438C22.136 13.4438 22.3897 13.4517 23.2331 13.4895C24.0126 13.526 24.4366 13.6563 24.7189 13.766C25.0914 13.9112 25.3577 14.0838 25.6377 14.3637C25.9177 14.6437 26.0903 14.91 26.2354 15.2837C26.3451 15.5649 26.4754 15.9889 26.5109 16.7695C26.5497 17.6117 26.5566 17.8643 26.5566 20.0003C26.5566 22.1352 26.5497 22.3889 26.5109 23.2323C26.4754 24.0117 26.3451 24.4357 26.2366 24.718C26.0903 25.0906 25.9166 25.3569 25.6377 25.6369C25.3796 25.9024 25.0652 26.1066 24.7177 26.2346C24.4354 26.3443 24.0126 26.4746 23.232 26.51C22.3897 26.5489 22.1371 26.5557 20.0011 26.5557C17.8651 26.5557 17.6126 26.5489 16.7691 26.51C15.9897 26.4746 15.5668 26.3443 15.2834 26.2357C14.9362 26.1073 14.6223 25.9026 14.3646 25.6369C14.0991 25.3787 13.8948 25.0644 13.7668 24.7169C13.6571 24.4346 13.5268 24.0117 13.4914 23.2312C13.4526 22.3889 13.4457 22.1352 13.4457 20.0003C13.4457 17.8643 13.4526 17.6117 13.4914 16.7683C13.5268 15.9889 13.6571 15.566 13.7657 15.2826C13.912 14.91 14.0857 14.6437 14.3646 14.3637C14.6446 14.0838 14.9108 13.9112 15.2846 13.766C15.5657 13.6563 15.9897 13.526 16.7703 13.4906C17.6126 13.4518 17.8651 13.4449 20.0011 13.4449M20.0011 12.0015C17.8297 12.0015 17.5566 12.0106 16.704 12.0495C15.8526 12.0895 15.2697 12.2255 14.7623 12.4232C14.2284 12.6239 13.7448 12.9386 13.3451 13.3455C12.9387 13.7452 12.6243 14.2289 12.424 14.7626C12.2263 15.2689 12.0903 15.8517 12.0514 16.702C12.0126 17.5546 12.0034 17.8277 12.0034 20.0003C12.0034 22.1717 12.0126 22.4449 12.0514 23.2975C12.0903 24.1489 12.2263 24.7306 12.424 25.2392C12.6274 25.7649 12.9017 26.2106 13.3463 26.6563C13.7908 27.0997 14.2366 27.374 14.7634 27.5775C15.2708 27.7752 15.8526 27.9112 16.704 27.95C17.5566 27.9889 17.8286 27.998 20.0011 27.998C22.1726 27.998 22.4457 27.9889 23.2983 27.95C24.1497 27.9112 24.7314 27.7752 25.24 27.5775C25.7738 27.3768 26.2575 27.062 26.6571 26.6552C27.0636 26.2554 27.3779 25.7718 27.5783 25.238C27.776 24.7306 27.912 24.1489 27.9509 23.2975C27.9897 22.4449 27.9989 22.1717 27.9989 20.0003C27.9989 17.8289 27.9897 17.5557 27.9509 16.7032C27.912 15.8517 27.776 15.27 27.5783 14.7615C27.3776 14.2276 27.0629 13.744 26.656 13.3443C26.2562 12.9379 25.7726 12.6235 25.2389 12.4232C24.7326 12.2255 24.1497 12.0895 23.2994 12.0506C22.4468 12.0118 22.1726 12.0026 20.0011 12.0026" fill="#2D2D2D"/>
<path fill-rule="evenodd" clip-rule="evenodd" d="M19.9998 15.8933C18.9108 15.8933 17.8663 16.3259 17.0963 17.096C16.3262 17.8661 15.8936 18.9105 15.8936 19.9996C15.8936 21.0886 16.3262 22.1331 17.0963 22.9032C17.8663 23.6732 18.9108 24.1059 19.9998 24.1059C21.0889 24.1059 22.1333 23.6732 22.9034 22.9032C23.6735 22.1331 24.1061 21.0886 24.1061 19.9996C24.1061 18.9105 23.6735 17.8661 22.9034 17.096C22.1333 16.3259 21.0889 15.8933 19.9998 15.8933ZM19.9998 22.6659C19.2927 22.6659 18.6145 22.3849 18.1145 21.8849C17.6145 21.3849 17.3336 20.7067 17.3336 19.9996C17.3336 19.2924 17.6145 18.6142 18.1145 18.1142C18.6145 17.6142 19.2927 17.3333 19.9998 17.3333C20.707 17.3333 21.3852 17.6142 21.8852 18.1142C22.3852 18.6142 22.6661 19.2924 22.6661 19.9996C22.6661 20.7067 22.3852 21.3849 21.8852 21.8849C21.3852 22.3849 20.707 22.6659 19.9998 22.6659ZM25.2284 15.731C25.2284 15.9856 25.1273 16.2298 24.9472 16.4098C24.7672 16.5899 24.523 16.691 24.2684 16.691C24.0138 16.691 23.7696 16.5899 23.5896 16.4098C23.4096 16.2298 23.3084 15.9856 23.3084 15.731C23.3084 15.4764 23.4096 15.2322 23.5896 15.0522C23.7696 14.8721 24.0138 14.771 24.2684 14.771C24.523 14.771 24.7672 14.8721 24.9472 15.0522C25.1273 15.2322 25.2284 15.4764 25.2284 15.731Z" fill="#2D2D2D"/>
</svg>
