<svg width="40" height="40" viewBox="0 0 40 40" fill="none" xmlns="http://www.w3.org/2000/svg">
<rect x="0.5" y="0.5" width="39" height="39" rx="19.5" stroke="#2D2D2D" stroke-opacity="0.12"/>
<path fill-rule="evenodd" clip-rule="evenodd" d="M15.52 27.9192H12.08V16.8792H15.52V27.9192ZM13.76 15.5192C12.72 15.5192 12 14.7992 12 13.8392C12 12.8792 12.72 12.1592 13.84 12.1592C14.96 12.1592 15.6 12.8792 15.6 13.8392C15.6 14.7992 14.96 15.5192 13.76 15.5192ZM28 27.9192H24.56V21.8392C24.56 20.3992 24.08 19.4392 22.8 19.4392C21.84 19.4392 21.28 20.0792 21.04 20.7192C20.96 20.9592 20.96 21.2792 20.96 21.5992V27.9192H17.52V20.3992C17.52 19.0392 17.44 17.9192 17.44 16.8792H20.4L20.56 18.3992H20.64C21.12 17.6792 22.16 16.6392 24 16.6392C26.24 16.6392 27.92 18.1592 27.92 21.3592V27.9192H28Z" fill="#2D2D2D"/>
</svg>
