<svg width="16" height="16" viewBox="0 0 16 16" fill="none" xmlns="http://www.w3.org/2000/svg">
<path d="M5.33341 2C5.66675 2 7.00008 5 7.00008 5.33333C7.00008 6 6.00008 6.66667 5.66675 7.33333C5.33341 8 6.00008 8.66667 6.66675 9.33333C6.92675 9.59333 8.00008 10.6667 8.66675 10.3333C9.33341 10 10.0001 9 10.6667 9C11.0001 9 14.0001 10.3333 14.0001 10.6667C14.0001 12 13.0001 13 12.0001 13.3333C11.0001 13.6667 10.3334 13.6667 9.00008 13.3333C7.66675 13 6.66675 12.6667 5.00008 11C3.33341 9.33333 3.00008 8.33333 2.66675 7C2.33341 5.66667 2.33341 5 2.66675 4C3.00008 3 4.00008 2 5.33341 2Z" stroke="#2D2D2D" stroke-width="1.3" stroke-linecap="round" stroke-linejoin="round"/>
</svg>
