<svg width="16" height="16" viewBox="0 0 16 16" fill="none" xmlns="http://www.w3.org/2000/svg">
<path d="M7.99992 1.3335C11.6819 1.3335 14.6666 4.31816 14.6666 8.00016C14.6666 11.6822 11.6819 14.6668 7.99992 14.6668C4.31792 14.6668 1.33325 11.6822 1.33325 8.00016C1.33325 4.31816 4.31792 1.3335 7.99992 1.3335ZM7.99992 2.66683C6.58543 2.66683 5.22888 3.22873 4.22868 4.22893C3.22849 5.22912 2.66659 6.58567 2.66659 8.00016C2.66659 9.41465 3.22849 10.7712 4.22868 11.7714C5.22888 12.7716 6.58543 13.3335 7.99992 13.3335C9.41441 13.3335 10.771 12.7716 11.7712 11.7714C12.7713 10.7712 13.3333 9.41465 13.3333 8.00016C13.3333 6.58567 12.7713 5.22912 11.7712 4.22893C10.771 3.22873 9.41441 2.66683 7.99992 2.66683ZM7.99992 4.00016C8.16321 4.00018 8.32081 4.06013 8.44283 4.16864C8.56486 4.27715 8.64281 4.42666 8.66192 4.58883L8.66658 4.66683V7.72416L10.4713 9.52883C10.5908 9.6488 10.6602 9.80978 10.6654 9.97908C10.6706 10.1484 10.6111 10.3133 10.4991 10.4403C10.3871 10.5674 10.2309 10.647 10.0623 10.6631C9.89365 10.6792 9.72525 10.6304 9.59125 10.5268L9.52858 10.4715L7.52858 8.4715C7.42497 8.36779 7.35843 8.23283 7.33925 8.0875L7.33325 8.00016V4.66683C7.33325 4.49002 7.40349 4.32045 7.52851 4.19542C7.65354 4.0704 7.82311 4.00016 7.99992 4.00016Z" fill="#2D2D2D"/>
</svg>
