<svg width="40" height="40" viewBox="0 0 40 40" fill="none" xmlns="http://www.w3.org/2000/svg">
<rect x="0.5" y="0.5" width="39" height="39" rx="19.5" stroke="#2D2D2D" stroke-opacity="0.12"/>
<path fill-rule="evenodd" clip-rule="evenodd" d="M26.4 16.72V17.12C26.4 21.44 23.12 26.48 17.04 26.48C15.2 26.48 13.44 25.92 12 25.04C12.24 25.04 12.56 25.12 12.8 25.12C14.32 25.12 15.76 24.56 16.88 23.68C15.44 23.68 14.24 22.72 13.84 21.44C14.08 21.44 14.24 21.52 14.48 21.52C14.8 21.52 15.12 21.52 15.36 21.44C13.84 21.12 12.8 19.84 12.8 18.24V18.16C12.8 18.4 13.68 18.56 14.24 18.56C13.36 18 12.72 16.96 12.72 15.84C12.72 15.2 12.88 14.64 13.2 14.16C14.8 16.16 17.2 17.44 20 17.6C19.84 17.28 19.76 17.04 19.76 16.8C19.76 14.96 21.2 13.52 23.04 13.52C24 13.52 24.8 13.92 25.44 14.56C26.16 14.4 26.88 14.16 27.52 13.76C27.28 14.56 26.72 15.2 26.08 15.6C26.72 15.52 27.36 15.36 28 15.12C27.52 15.68 27.04 16.24 26.4 16.72Z" fill="#2D2D2D"/>
</svg>
