<svg width="16" height="16" viewBox="0 0 16 16" fill="none" xmlns="http://www.w3.org/2000/svg">
<path d="M12.7 3.27353C12.0887 2.65627 11.3607 2.16684 10.5584 1.83377C9.75603 1.5007 8.89542 1.33065 8.0267 1.33353C4.3867 1.33353 1.42003 4.3002 1.42003 7.9402C1.42003 9.10687 1.7267 10.2402 2.30003 11.2402L1.3667 14.6669L4.8667 13.7469C5.83337 14.2735 6.92003 14.5535 8.0267 14.5535C11.6667 14.5535 14.6334 11.5869 14.6334 7.94687C14.6334 6.1802 13.9467 4.5202 12.7 3.27353ZM8.0267 13.4335C7.04003 13.4335 6.07337 13.1669 5.2267 12.6669L5.0267 12.5469L2.9467 13.0935L3.50003 11.0669L3.3667 10.8602C2.8184 9.9849 2.52732 8.97305 2.5267 7.9402C2.5267 4.91353 4.99337 2.44687 8.02003 2.44687C9.4867 2.44687 10.8667 3.0202 11.9 4.0602C12.4118 4.56944 12.8173 5.17523 13.0931 5.84242C13.3689 6.50961 13.5095 7.22492 13.5067 7.94687C13.52 10.9735 11.0534 13.4335 8.0267 13.4335ZM11.04 9.32687C10.8734 9.24687 10.06 8.84687 9.91337 8.78687C9.76003 8.73353 9.65337 8.70687 9.54003 8.86687C9.4267 9.03353 9.11337 9.40687 9.02003 9.51353C8.9267 9.62687 8.8267 9.6402 8.66003 9.55353C8.49337 9.47353 7.96003 9.29353 7.33337 8.73353C6.84003 8.29353 6.51337 7.75353 6.41337 7.58687C6.32003 7.4202 6.40003 7.33353 6.4867 7.24687C6.56003 7.17353 6.65337 7.05353 6.73337 6.9602C6.81337 6.86687 6.8467 6.79353 6.90003 6.68687C6.95337 6.57353 6.9267 6.4802 6.8867 6.4002C6.8467 6.3202 6.51337 5.50687 6.38003 5.17353C6.2467 4.85353 6.1067 4.89353 6.0067 4.88687H5.6867C5.57337 4.88687 5.40003 4.92687 5.2467 5.09353C5.10003 5.2602 4.67337 5.6602 4.67337 6.47353C4.67337 7.28687 5.2667 8.07353 5.3467 8.1802C5.4267 8.29353 6.51337 9.9602 8.1667 10.6735C8.56003 10.8469 8.8667 10.9469 9.1067 11.0202C9.50003 11.1469 9.86003 11.1269 10.1467 11.0869C10.4667 11.0402 11.1267 10.6869 11.26 10.3002C11.4 9.91353 11.4 9.58687 11.3534 9.51353C11.3067 9.4402 11.2067 9.40687 11.04 9.32687Z" fill="#2D2D2D"/>
</svg>
