<svg width="24" height="25" viewBox="0 0 24 25" fill="none" xmlns="http://www.w3.org/2000/svg">
<path d="M3 5.5V4.75C2.80109 4.75 2.61032 4.82902 2.46967 4.96967C2.32902 5.11032 2.25 5.30109 2.25 5.5H3ZM21 5.5H21.75C21.75 5.30109 21.671 5.11032 21.5303 4.96967C21.3897 4.82902 21.1989 4.75 21 4.75V5.5ZM3 6.25H21V4.75H3V6.25ZM20.25 5.5V17.5H21.75V5.5H20.25ZM19 18.75H5V20.25H19V18.75ZM3.75 17.5V5.5H2.25V17.5H3.75ZM5 18.75C4.31 18.75 3.75 18.19 3.75 17.5H2.25C2.25 18.2293 2.53973 18.9288 3.05546 19.4445C3.57118 19.9603 4.27065 20.25 5 20.25V18.75ZM20.25 17.5C20.25 18.19 19.69 18.75 19 18.75V20.25C19.7293 20.25 20.4288 19.9603 20.9445 19.4445C21.4603 18.9288 21.75 18.2293 21.75 17.5H20.25Z" fill="#536471"/>
<path d="M3 5.5L12 14.5L21 5.5" stroke="#536471" stroke-width="1.2" stroke-linecap="round" stroke-linejoin="round"/>
</svg>
