<svg width="16" height="16" viewBox="0 0 16 16" fill="none" xmlns="http://www.w3.org/2000/svg">
<path fill-rule="evenodd" clip-rule="evenodd" d="M8.00113 1.44375C10.136 1.44375 10.3897 1.45175 11.2331 1.48946C12.0126 1.52604 12.4366 1.65632 12.7189 1.76604C13.0914 1.91118 13.3577 2.08375 13.6377 2.36375C13.9177 2.64375 14.0903 2.91004 14.2354 3.28375C14.3451 3.56489 14.4754 3.98889 14.5109 4.76946C14.5497 5.61175 14.5566 5.86432 14.5566 8.00032C14.5566 10.1352 14.5497 10.3889 14.5109 11.2323C14.4754 12.0117 14.3451 12.4357 14.2366 12.718C14.0903 13.0906 13.9166 13.3569 13.6377 13.6369C13.3796 13.9024 13.0652 14.1066 12.7177 14.2346C12.4354 14.3443 12.0126 14.4746 11.232 14.51C10.3897 14.5489 10.1371 14.5557 8.00113 14.5557C5.86513 14.5557 5.61256 14.5489 4.76913 14.51C3.9897 14.4746 3.56685 14.3443 3.28342 14.2357C2.93624 14.1073 2.62227 13.9026 2.36456 13.6369C2.09908 13.3787 1.89483 13.0644 1.76685 12.7169C1.65713 12.4346 1.52685 12.0117 1.49142 11.2312C1.45256 10.3889 1.4457 10.1352 1.4457 8.00032C1.4457 5.86432 1.45256 5.61175 1.49142 4.76832C1.52685 3.98889 1.65713 3.56604 1.7657 3.28261C1.91199 2.91004 2.0857 2.64375 2.36456 2.36375C2.64456 2.08375 2.91085 1.91118 3.28456 1.76604C3.5657 1.65632 3.9897 1.52604 4.77028 1.49061C5.61256 1.45175 5.86513 1.44489 8.00113 1.44489M8.00113 0.00146484C5.82971 0.00146484 5.55656 0.0106077 4.70399 0.0494648C3.85256 0.0894648 3.2697 0.225465 2.76228 0.423179C2.22843 0.623857 1.7448 0.938606 1.34513 1.34546C0.938687 1.74524 0.624333 2.22886 0.42399 2.76261C0.226275 3.26889 0.0902751 3.85175 0.051418 4.70203C0.0125608 5.55461 0.00341797 5.82775 0.00341797 8.00032C0.00341797 10.1717 0.0125608 10.4449 0.051418 11.2975C0.0902751 12.1489 0.226275 12.7306 0.42399 13.2392C0.627418 13.7649 0.901704 14.2106 1.34628 14.6563C1.79085 15.0997 2.23656 15.374 2.76342 15.5775C3.27085 15.7752 3.85256 15.9112 4.70399 15.95C5.55656 15.9889 5.82856 15.998 8.00113 15.998C10.1726 15.998 10.4457 15.9889 11.2983 15.95C12.1497 15.9112 12.7314 15.7752 13.24 15.5775C13.7738 15.3768 14.2575 15.062 14.6571 14.6552C15.0636 14.2554 15.3779 13.7718 15.5783 13.238C15.776 12.7306 15.912 12.1489 15.9509 11.2975C15.9897 10.4449 15.9989 10.1717 15.9989 8.00032C15.9989 5.82889 15.9897 5.55575 15.9509 4.70318C15.912 3.85175 15.776 3.27004 15.5783 2.76146C15.3776 2.22762 15.0629 1.74399 14.656 1.34432C14.2562 0.937876 13.7726 0.623522 13.2389 0.423179C12.7326 0.225465 12.1497 0.0894648 11.2994 0.0506077C10.4468 0.0117506 10.1726 0.0026077 8.00113 0.0026077" fill="#2D2D2D"/>
<path fill-rule="evenodd" clip-rule="evenodd" d="M8.00008 3.89328C6.91103 3.89328 5.86658 4.32591 5.0965 5.09599C4.32642 5.86606 3.8938 6.91051 3.8938 7.99957C3.8938 9.08862 4.32642 10.1331 5.0965 10.9032C5.86658 11.6732 6.91103 12.1059 8.00008 12.1059C9.08914 12.1059 10.1336 11.6732 10.9037 10.9032C11.6737 10.1331 12.1064 9.08862 12.1064 7.99957C12.1064 6.91051 11.6737 5.86606 10.9037 5.09599C10.1336 4.32591 9.08914 3.89328 8.00008 3.89328ZM8.00008 10.6659C7.29294 10.6659 6.61476 10.3849 6.11474 9.88492C5.61471 9.38489 5.3338 8.70671 5.3338 7.99957C5.3338 7.29243 5.61471 6.61425 6.11474 6.11422C6.61476 5.61419 7.29294 5.33328 8.00008 5.33328C8.70723 5.33328 9.38541 5.61419 9.88543 6.11422C10.3855 6.61425 10.6664 7.29243 10.6664 7.99957C10.6664 8.70671 10.3855 9.38489 9.88543 9.88492C9.38541 10.3849 8.70723 10.6659 8.00008 10.6659ZM13.2287 3.731C13.2287 3.9856 13.1275 4.22978 12.9475 4.40982C12.7674 4.58985 12.5233 4.691 12.2687 4.691C12.014 4.691 11.7699 4.58985 11.5898 4.40982C11.4098 4.22978 11.3087 3.9856 11.3087 3.731C11.3087 3.47639 11.4098 3.23221 11.5898 3.05217C11.7699 2.87214 12.014 2.771 12.2687 2.771C12.5233 2.771 12.7674 2.87214 12.9475 3.05217C13.1275 3.23221 13.2287 3.47639 13.2287 3.731Z" fill="#2D2D2D"/>
</svg>
