<svg width="16" height="16" viewBox="0 0 16 16" fill="none" xmlns="http://www.w3.org/2000/svg">
<path fill-rule="evenodd" clip-rule="evenodd" d="M3.52 15.9192H0.08V4.87918H3.52V15.9192ZM1.76 3.51918C0.72 3.51918 0 2.79918 0 1.83918C0 0.87918 0.72 0.15918 1.84 0.15918C2.96 0.15918 3.6 0.87918 3.6 1.83918C3.6 2.79918 2.96 3.51918 1.76 3.51918ZM16 15.9192H12.56V9.83918C12.56 8.39918 12.08 7.43918 10.8 7.43918C9.84 7.43918 9.28 8.07918 9.04 8.71918C8.96 8.95918 8.96 9.27918 8.96 9.59918V15.9192H5.52V8.39918C5.52 7.03918 5.44 5.91918 5.44 4.87918H8.4L8.56 6.39918H8.64C9.12 5.67918 10.16 4.63918 12 4.63918C14.24 4.63918 15.92 6.15918 15.92 9.35918V15.9192H16Z" fill="#2D2D2D"/>
</svg>
