<svg width="16" height="16" viewBox="0 0 16 16" fill="none" xmlns="http://www.w3.org/2000/svg">
<path fill-rule="evenodd" clip-rule="evenodd" d="M14.4 4.72002V5.12002C14.4 9.44002 11.12 14.48 5.04 14.48C3.2 14.48 1.44 13.92 0 13.04C0.24 13.04 0.56 13.12 0.8 13.12C2.32 13.12 3.76 12.56 4.88 11.68C3.44 11.68 2.24 10.72 1.84 9.44002C2.08 9.44002 2.24 9.52002 2.48 9.52002C2.8 9.52002 3.12 9.52002 3.36 9.44002C1.84 9.12002 0.8 7.84002 0.8 6.24002V6.16002C0.8 6.40002 1.68 6.56002 2.24 6.56002C1.36 6.00002 0.72 4.96002 0.72 3.84002C0.72 3.20002 0.88 2.64002 1.2 2.16002C2.8 4.16002 5.2 5.44002 8 5.60002C7.84 5.28002 7.76 5.04002 7.76 4.80002C7.76 2.96002 9.2 1.52002 11.04 1.52002C12 1.52002 12.8 1.92002 13.44 2.56002C14.16 2.40002 14.88 2.16002 15.52 1.76002C15.28 2.56002 14.72 3.20002 14.08 3.60002C14.72 3.52002 15.36 3.36002 16 3.12002C15.52 3.68002 15.04 4.24002 14.4 4.72002Z" fill="#2D2D2D"/>
</svg>
