<svg width="16" height="16" viewBox="0 0 16 16" fill="none" xmlns="http://www.w3.org/2000/svg">
<path d="M13.2876 2.68254C12.5999 1.98812 11.7809 1.43752 10.8782 1.06281C9.9756 0.688109 9.00741 0.496803 8.0301 0.50004C3.9351 0.50004 0.597598 3.83754 0.597598 7.93254C0.597598 9.24504 0.942598 10.52 1.5876 11.645L0.537598 15.5L4.4751 14.465C5.5626 15.0575 6.7851 15.3725 8.0301 15.3725C12.1251 15.3725 15.4626 12.035 15.4626 7.94004C15.4626 5.95254 14.6901 4.08504 13.2876 2.68254ZM8.0301 14.1125C6.9201 14.1125 5.8326 13.8125 4.8801 13.25L4.6551 13.115L2.3151 13.73L2.9376 11.45L2.7876 11.2175C2.17076 10.2328 1.84329 9.0945 1.8426 7.93254C1.8426 4.52754 4.6176 1.75254 8.0226 1.75254C9.6726 1.75254 11.2251 2.39754 12.3876 3.56754C12.9633 4.14044 13.4195 4.82195 13.7298 5.57254C14.0401 6.32313 14.1982 7.12785 14.1951 7.94004C14.2101 11.345 11.4351 14.1125 8.0301 14.1125ZM11.4201 9.49254C11.2326 9.40254 10.3176 8.95254 10.1526 8.88504C9.9801 8.82504 9.8601 8.79504 9.7326 8.97504C9.6051 9.16254 9.2526 9.58254 9.1476 9.70254C9.0426 9.83004 8.9301 9.84504 8.7426 9.74754C8.5551 9.65754 7.9551 9.45504 7.2501 8.82504C6.6951 8.33004 6.3276 7.72254 6.2151 7.53504C6.1101 7.34754 6.2001 7.25004 6.2976 7.15254C6.3801 7.07004 6.4851 6.93504 6.5751 6.83004C6.6651 6.72504 6.7026 6.64254 6.7626 6.52254C6.8226 6.39504 6.7926 6.29004 6.7476 6.20004C6.7026 6.11004 6.3276 5.19504 6.1776 4.82004C6.0276 4.46004 5.8701 4.50504 5.7576 4.49754H5.3976C5.2701 4.49754 5.0751 4.54254 4.9026 4.73004C4.7376 4.91754 4.2576 5.36754 4.2576 6.28254C4.2576 7.19754 4.9251 8.08254 5.0151 8.20254C5.1051 8.33004 6.3276 10.205 8.1876 11.0075C8.6301 11.2025 8.9751 11.315 9.2451 11.3975C9.6876 11.54 10.0926 11.5175 10.4151 11.4725C10.7751 11.42 11.5176 11.0225 11.6676 10.5875C11.8251 10.1525 11.8251 9.78504 11.7726 9.70254C11.7201 9.62004 11.6076 9.58254 11.4201 9.49254Z" fill="#2D2D2D"/>
</svg>
