<svg width="21" height="21" viewBox="0 0 21 21" fill="none" xmlns="http://www.w3.org/2000/svg">
<path d="M10.4998 2.1665C5.89984 2.1665 2.1665 5.89984 2.1665 10.4998C2.1665 15.0998 5.89984 18.8332 10.4998 18.8332C15.0998 18.8332 18.8332 15.0998 18.8332 10.4998C18.8332 5.89984 15.0998 2.1665 10.4998 2.1665ZM8.2415 14.0748L5.24984 11.0832C5.17269 11.006 5.11149 10.9144 5.06973 10.8136C5.02798 10.7128 5.00649 10.6048 5.00649 10.4957C5.00649 10.3866 5.02798 10.2785 5.06973 10.1777C5.11149 10.0769 5.17269 9.98532 5.24984 9.90817C5.32699 9.83102 5.41858 9.76982 5.51938 9.72807C5.62019 9.68631 5.72823 9.66482 5.83734 9.66482C5.94645 9.66482 6.05449 9.68631 6.15529 9.72807C6.25609 9.76982 6.34769 9.83102 6.42484 9.90817L8.83317 12.3082L14.5665 6.57484C14.7223 6.41902 14.9336 6.33149 15.154 6.33149C15.3744 6.33149 15.5857 6.41902 15.7415 6.57484C15.8973 6.73065 15.9849 6.94198 15.9849 7.16234C15.9849 7.38269 15.8973 7.59402 15.7415 7.74984L9.4165 14.0748C9.33941 14.1521 9.24784 14.2134 9.14702 14.2552C9.04621 14.297 8.93814 14.3185 8.829 14.3185C8.71986 14.3185 8.61179 14.297 8.51098 14.2552C8.41017 14.2134 8.3186 14.1521 8.2415 14.0748Z" fill="#00B2DA"/>
</svg>
