<svg width="14" height="15" viewBox="0 0 14 15" fill="none" xmlns="http://www.w3.org/2000/svg">
<path d="M11.0833 1.2334C11.3928 1.2334 11.6895 1.35631 11.9083 1.57511C12.1271 1.7939 12.25 2.09065 12.25 2.40007V9.40006C12.25 9.70948 12.1271 10.0062 11.9083 10.225C11.6895 10.4438 11.3928 10.5667 11.0833 10.5667H9.91667V11.7334C9.91667 12.0428 9.79375 12.3396 9.57496 12.5584C9.35616 12.7771 9.05942 12.9001 8.75 12.9001H2.91667C2.60725 12.9001 2.3105 12.7771 2.09171 12.5584C1.87292 12.3396 1.75 12.0428 1.75 11.7334V4.7334C1.75 4.42398 1.87292 4.12723 2.09171 3.90844C2.3105 3.68965 2.60725 3.56673 2.91667 3.56673H4.08333V2.40007C4.08333 2.09065 4.20625 1.7939 4.42504 1.57511C4.64383 1.35631 4.94058 1.2334 5.25 1.2334H11.0833ZM5.83333 8.81673H4.66667C4.51799 8.8169 4.37498 8.87383 4.26687 8.97589C4.15876 9.07796 4.0937 9.21745 4.08498 9.36588C4.07627 9.5143 4.12456 9.66045 4.21999 9.77447C4.31542 9.88848 4.45078 9.96175 4.59842 9.97931L4.66667 9.9834H5.83333C5.98201 9.98323 6.12502 9.9263 6.23313 9.82424C6.34124 9.72217 6.4063 9.58268 6.41502 9.43425C6.42373 9.28583 6.37544 9.13968 6.28001 9.02566C6.18458 8.91165 6.04922 8.83838 5.90158 8.82081L5.83333 8.81673ZM11.0833 2.40007H5.25V3.56673H8.75C9.05942 3.56673 9.35616 3.68965 9.57496 3.90844C9.79375 4.12723 9.91667 4.42398 9.91667 4.7334V9.40006H11.0833V2.40007ZM7 6.4834H4.66667C4.51196 6.4834 4.36358 6.54486 4.25419 6.65425C4.14479 6.76365 4.08333 6.91202 4.08333 7.06673C4.08333 7.22144 4.14479 7.36981 4.25419 7.47921C4.36358 7.58861 4.51196 7.65006 4.66667 7.65006H7C7.15471 7.65006 7.30308 7.58861 7.41248 7.47921C7.52187 7.36981 7.58333 7.22144 7.58333 7.06673C7.58333 6.91202 7.52187 6.76365 7.41248 6.65425C7.30308 6.54486 7.15471 6.4834 7 6.4834Z" fill="#00B2DA" fill-opacity="0.6"/>
</svg>
