<svg width="14" height="11" viewBox="0 0 14 11" fill="none" xmlns="http://www.w3.org/2000/svg">
<path d="M8.86683 2.90006L9.66683 3.70006L5.1335 8.2334L4.3335 7.4334L8.86683 2.90006ZM1.66683 0.233398H12.3335C13.0735 0.233398 13.6668 0.826732 13.6668 1.56673V4.2334C13.3132 4.2334 12.9741 4.37387 12.724 4.62392C12.474 4.87397 12.3335 5.21311 12.3335 5.56673C12.3335 5.92035 12.474 6.25949 12.724 6.50954C12.9741 6.75959 13.3132 6.90006 13.6668 6.90006V9.56673C13.6668 10.3067 13.0735 10.9001 12.3335 10.9001H1.66683C1.31321 10.9001 0.974069 10.7596 0.72402 10.5095C0.473972 10.2595 0.333496 9.92035 0.333496 9.56673V6.90006C1.0735 6.90006 1.66683 6.30673 1.66683 5.56673C1.66683 5.21311 1.52635 4.87397 1.27631 4.62392C1.02626 4.37387 0.687118 4.2334 0.333496 4.2334V1.56673C0.333496 1.21311 0.473972 0.873971 0.72402 0.623923C0.974069 0.373874 1.31321 0.233398 1.66683 0.233398ZM1.66683 1.56673V3.26006C2.07195 3.49366 2.4084 3.82984 2.64233 4.23477C2.87627 4.63969 2.99943 5.09909 2.99943 5.56673C2.99943 6.03437 2.87627 6.49377 2.64233 6.8987C2.4084 7.30362 2.07195 7.6398 1.66683 7.8734V9.56673H12.3335V7.8734C11.9284 7.6398 11.5919 7.30362 11.358 6.8987C11.1241 6.49377 11.0009 6.03437 11.0009 5.56673C11.0009 5.09909 11.1241 4.63969 11.358 4.23477C11.5919 3.82984 11.9284 3.49366 12.3335 3.26006V1.56673H1.66683ZM5.3335 2.90006C5.88683 2.90006 6.3335 3.34673 6.3335 3.90006C6.3335 4.4534 5.88683 4.90006 5.3335 4.90006C4.78016 4.90006 4.3335 4.4534 4.3335 3.90006C4.3335 3.34673 4.78016 2.90006 5.3335 2.90006ZM8.66683 6.2334C9.22016 6.2334 9.66683 6.68006 9.66683 7.2334C9.66683 7.78673 9.22016 8.2334 8.66683 8.2334C8.1135 8.2334 7.66683 7.78673 7.66683 7.2334C7.66683 6.68006 8.1135 6.2334 8.66683 6.2334Z" fill="#00B2DA"/>
</svg>
