<svg width="14" height="15" viewBox="0 0 14 15" fill="none" xmlns="http://www.w3.org/2000/svg">
<path d="M6.06683 8.76706L4.6335 7.33372C4.51127 7.2115 4.35572 7.15039 4.16683 7.15039C3.97794 7.15039 3.82239 7.2115 3.70016 7.33372C3.57794 7.45595 3.51683 7.6115 3.51683 7.80039C3.51683 7.98928 3.57794 8.14484 3.70016 8.26706L5.60016 10.1671C5.7335 10.3004 5.88905 10.3671 6.06683 10.3671C6.24461 10.3671 6.40016 10.3004 6.5335 10.1671L10.3002 6.40039C10.4224 6.27817 10.4835 6.12261 10.4835 5.93372C10.4835 5.74484 10.4224 5.58928 10.3002 5.46706C10.1779 5.34484 10.0224 5.28372 9.8335 5.28372C9.64461 5.28372 9.48905 5.34484 9.36683 5.46706L6.06683 8.76706ZM7.00016 14.2337C6.07794 14.2337 5.21127 14.0586 4.40016 13.7084C3.58905 13.3582 2.8835 12.8833 2.2835 12.2837C1.6835 11.6842 1.20861 10.9786 0.85883 10.1671C0.509053 9.3555 0.333941 8.48884 0.333497 7.56706C0.333052 6.64528 0.508164 5.77861 0.85883 4.96706C1.2095 4.1555 1.68439 3.44995 2.2835 2.85039C2.88261 2.25084 3.58816 1.77595 4.40016 1.42572C5.21216 1.0755 6.07883 0.900391 7.00016 0.900391C7.9215 0.900391 8.78816 1.0755 9.60016 1.42572C10.4122 1.77595 11.1177 2.25084 11.7168 2.85039C12.3159 3.44995 12.7911 4.1555 13.1422 4.96706C13.4933 5.77861 13.6682 6.64528 13.6668 7.56706C13.6655 8.48884 13.4904 9.3555 13.1415 10.1671C12.7926 10.9786 12.3177 11.6842 11.7168 12.2837C11.1159 12.8833 10.4104 13.3584 9.60016 13.7091C8.78994 14.0597 7.92327 14.2346 7.00016 14.2337Z" fill="#0CC548"/>
</svg>
