<svg width="26" height="21" viewBox="0 0 26 21" fill="none" xmlns="http://www.w3.org/2000/svg">
<path d="M14.6667 7.16666V5.49999C14.6667 5.05797 14.4911 4.63404 14.1785 4.32148C13.866 4.00892 13.442 3.83333 13 3.83333H7.16667C6.72464 3.83333 6.30072 4.00892 5.98816 4.32148C5.67559 4.63404 5.5 5.05797 5.5 5.49999V15.5C5.5 15.942 5.67559 16.3659 5.98816 16.6785C6.30072 16.9911 6.72464 17.1667 7.16667 17.1667H13C13.442 17.1667 13.866 16.9911 14.1785 16.6785C14.4911 16.3659 14.6667 15.942 14.6667 15.5V13.8333" stroke="#3A519D" stroke-width="1.5" stroke-linecap="round" stroke-linejoin="round"/>
<path d="M10.5 10.5H20.5M20.5 10.5L18 8M20.5 10.5L18 13" stroke="#3A519D" stroke-width="1.5" stroke-linecap="round" stroke-linejoin="round"/>
</svg>
